<mxfile host="app.diagrams.net" modified="2022-11-28T18:52:44.395Z" agent="5.0 (Windows NT 10.0; Win64; x64) AppleWebKit/537.36 (KHTML, like Gecko) Chrome/106.0.0.0 Safari/537.36 OPR/92.0.0.0 (Edition Yx GX)" version="20.6.0" etag="_Uyq5mv9tNd3MAsxR61Z" type="github">
  <diagram id="GJBDcur2XA8_138J-rAH" name="Страница 1">
    <mxGraphModel dx="2125" dy="1234" grid="1" gridSize="10" guides="1" tooltips="1" connect="1" arrows="1" fold="1" page="1" pageScale="1" pageWidth="1169" pageHeight="1654" math="0" shadow="0">
      <root>
        <mxCell id="0" />
        <mxCell id="1" parent="0" />
        <mxCell id="D-ztfnh9r1iO0S8KmQqy-3" value="" style="edgeStyle=orthogonalEdgeStyle;rounded=0;orthogonalLoop=1;jettySize=auto;html=1;" edge="1" parent="1" source="D-ztfnh9r1iO0S8KmQqy-1" target="D-ztfnh9r1iO0S8KmQqy-2">
          <mxGeometry relative="1" as="geometry" />
        </mxCell>
        <mxCell id="D-ztfnh9r1iO0S8KmQqy-1" value="start" style="ellipse;whiteSpace=wrap;html=1;" vertex="1" parent="1">
          <mxGeometry x="480" y="90" width="120" height="60" as="geometry" />
        </mxCell>
        <mxCell id="D-ztfnh9r1iO0S8KmQqy-5" style="edgeStyle=orthogonalEdgeStyle;rounded=0;orthogonalLoop=1;jettySize=auto;html=1;entryX=0.5;entryY=0;entryDx=0;entryDy=0;" edge="1" parent="1" source="D-ztfnh9r1iO0S8KmQqy-2" target="D-ztfnh9r1iO0S8KmQqy-4">
          <mxGeometry relative="1" as="geometry" />
        </mxCell>
        <mxCell id="D-ztfnh9r1iO0S8KmQqy-2" value="numbers[77,46,11,89,48,14,67,73,22,26]&lt;br&gt;" style="shape=parallelogram;perimeter=parallelogramPerimeter;whiteSpace=wrap;html=1;fixedSize=1;" vertex="1" parent="1">
          <mxGeometry x="380" y="230" width="320" height="60" as="geometry" />
        </mxCell>
        <mxCell id="D-ztfnh9r1iO0S8KmQqy-7" value="" style="edgeStyle=orthogonalEdgeStyle;rounded=0;orthogonalLoop=1;jettySize=auto;html=1;" edge="1" parent="1" source="D-ztfnh9r1iO0S8KmQqy-4" target="D-ztfnh9r1iO0S8KmQqy-6">
          <mxGeometry relative="1" as="geometry" />
        </mxCell>
        <mxCell id="D-ztfnh9r1iO0S8KmQqy-4" value="sorted_size&amp;nbsp; = 0&lt;br&gt;size = numbers.length = 10" style="whiteSpace=wrap;html=1;" vertex="1" parent="1">
          <mxGeometry x="420" y="340" width="240" height="60" as="geometry" />
        </mxCell>
        <mxCell id="D-ztfnh9r1iO0S8KmQqy-9" value="" style="edgeStyle=orthogonalEdgeStyle;rounded=0;orthogonalLoop=1;jettySize=auto;html=1;" edge="1" parent="1" source="D-ztfnh9r1iO0S8KmQqy-6" target="D-ztfnh9r1iO0S8KmQqy-8">
          <mxGeometry relative="1" as="geometry" />
        </mxCell>
        <mxCell id="D-ztfnh9r1iO0S8KmQqy-10" value="yes" style="edgeLabel;html=1;align=center;verticalAlign=middle;resizable=0;points=[];" vertex="1" connectable="0" parent="D-ztfnh9r1iO0S8KmQqy-9">
          <mxGeometry x="-0.2889" y="-1" relative="1" as="geometry">
            <mxPoint as="offset" />
          </mxGeometry>
        </mxCell>
        <mxCell id="D-ztfnh9r1iO0S8KmQqy-22" value="" style="edgeStyle=orthogonalEdgeStyle;rounded=0;orthogonalLoop=1;jettySize=auto;html=1;" edge="1" parent="1" source="D-ztfnh9r1iO0S8KmQqy-6" target="D-ztfnh9r1iO0S8KmQqy-21">
          <mxGeometry relative="1" as="geometry" />
        </mxCell>
        <mxCell id="D-ztfnh9r1iO0S8KmQqy-25" value="no" style="edgeLabel;html=1;align=center;verticalAlign=middle;resizable=0;points=[];" vertex="1" connectable="0" parent="D-ztfnh9r1iO0S8KmQqy-22">
          <mxGeometry x="-0.3257" y="2" relative="1" as="geometry">
            <mxPoint x="7" y="2" as="offset" />
          </mxGeometry>
        </mxCell>
        <mxCell id="D-ztfnh9r1iO0S8KmQqy-6" value="sorted_size &amp;lt; size-1" style="rhombus;whiteSpace=wrap;html=1;" vertex="1" parent="1">
          <mxGeometry x="460" y="470" width="160" height="80" as="geometry" />
        </mxCell>
        <mxCell id="D-ztfnh9r1iO0S8KmQqy-12" value="" style="edgeStyle=orthogonalEdgeStyle;rounded=0;orthogonalLoop=1;jettySize=auto;html=1;" edge="1" parent="1" source="D-ztfnh9r1iO0S8KmQqy-8" target="D-ztfnh9r1iO0S8KmQqy-11">
          <mxGeometry relative="1" as="geometry" />
        </mxCell>
        <mxCell id="D-ztfnh9r1iO0S8KmQqy-8" value="index = 0" style="whiteSpace=wrap;html=1;" vertex="1" parent="1">
          <mxGeometry x="480" y="640" width="120" height="60" as="geometry" />
        </mxCell>
        <mxCell id="D-ztfnh9r1iO0S8KmQqy-14" value="" style="edgeStyle=orthogonalEdgeStyle;rounded=0;orthogonalLoop=1;jettySize=auto;html=1;startArrow=none;" edge="1" parent="1" source="D-ztfnh9r1iO0S8KmQqy-27" target="D-ztfnh9r1iO0S8KmQqy-13">
          <mxGeometry relative="1" as="geometry" />
        </mxCell>
        <mxCell id="D-ztfnh9r1iO0S8KmQqy-15" value="yes" style="edgeLabel;html=1;align=center;verticalAlign=middle;resizable=0;points=[];" vertex="1" connectable="0" parent="D-ztfnh9r1iO0S8KmQqy-14">
          <mxGeometry x="0.2622" relative="1" as="geometry">
            <mxPoint y="-170" as="offset" />
          </mxGeometry>
        </mxCell>
        <mxCell id="D-ztfnh9r1iO0S8KmQqy-31" value="yes" style="edgeLabel;html=1;align=center;verticalAlign=middle;resizable=0;points=[];" vertex="1" connectable="0" parent="D-ztfnh9r1iO0S8KmQqy-14">
          <mxGeometry x="0.3036" relative="1" as="geometry">
            <mxPoint y="-22" as="offset" />
          </mxGeometry>
        </mxCell>
        <mxCell id="D-ztfnh9r1iO0S8KmQqy-18" style="edgeStyle=orthogonalEdgeStyle;rounded=0;orthogonalLoop=1;jettySize=auto;html=1;entryX=1;entryY=0.5;entryDx=0;entryDy=0;" edge="1" parent="1" source="D-ztfnh9r1iO0S8KmQqy-11" target="D-ztfnh9r1iO0S8KmQqy-19">
          <mxGeometry relative="1" as="geometry">
            <mxPoint x="720" y="1060" as="targetPoint" />
            <Array as="points">
              <mxPoint x="720" y="810" />
              <mxPoint x="720" y="1410" />
            </Array>
          </mxGeometry>
        </mxCell>
        <mxCell id="D-ztfnh9r1iO0S8KmQqy-26" value="no" style="edgeLabel;html=1;align=center;verticalAlign=middle;resizable=0;points=[];" vertex="1" connectable="0" parent="D-ztfnh9r1iO0S8KmQqy-18">
          <mxGeometry x="-0.9265" y="-3" relative="1" as="geometry">
            <mxPoint x="2" y="-3" as="offset" />
          </mxGeometry>
        </mxCell>
        <mxCell id="D-ztfnh9r1iO0S8KmQqy-11" value="index &amp;lt; (size - 1 - sorted_size)" style="rhombus;whiteSpace=wrap;html=1;" vertex="1" parent="1">
          <mxGeometry x="430" y="770" width="220" height="80" as="geometry" />
        </mxCell>
        <mxCell id="D-ztfnh9r1iO0S8KmQqy-17" value="" style="edgeStyle=orthogonalEdgeStyle;rounded=0;orthogonalLoop=1;jettySize=auto;html=1;" edge="1" parent="1" source="D-ztfnh9r1iO0S8KmQqy-13" target="D-ztfnh9r1iO0S8KmQqy-16">
          <mxGeometry relative="1" as="geometry" />
        </mxCell>
        <mxCell id="D-ztfnh9r1iO0S8KmQqy-13" value="temp = numbers[index];&lt;br&gt;numbers[index] = numbers[index + 1];&lt;br&gt;numbers[index + 1] = temp" style="whiteSpace=wrap;html=1;" vertex="1" parent="1">
          <mxGeometry x="390" y="1080" width="300" height="60" as="geometry" />
        </mxCell>
        <mxCell id="D-ztfnh9r1iO0S8KmQqy-20" value="" style="edgeStyle=orthogonalEdgeStyle;rounded=0;orthogonalLoop=1;jettySize=auto;html=1;" edge="1" parent="1" source="D-ztfnh9r1iO0S8KmQqy-16" target="D-ztfnh9r1iO0S8KmQqy-19">
          <mxGeometry relative="1" as="geometry" />
        </mxCell>
        <mxCell id="D-ztfnh9r1iO0S8KmQqy-37" style="edgeStyle=orthogonalEdgeStyle;rounded=0;orthogonalLoop=1;jettySize=auto;html=1;entryX=0;entryY=0.5;entryDx=0;entryDy=0;" edge="1" parent="1" source="D-ztfnh9r1iO0S8KmQqy-16" target="D-ztfnh9r1iO0S8KmQqy-11">
          <mxGeometry relative="1" as="geometry">
            <mxPoint x="430" y="800" as="targetPoint" />
            <Array as="points">
              <mxPoint x="330" y="1250" />
              <mxPoint x="330" y="810" />
            </Array>
          </mxGeometry>
        </mxCell>
        <mxCell id="D-ztfnh9r1iO0S8KmQqy-16" value="index = index + 1" style="whiteSpace=wrap;html=1;" vertex="1" parent="1">
          <mxGeometry x="480" y="1220" width="120" height="60" as="geometry" />
        </mxCell>
        <mxCell id="D-ztfnh9r1iO0S8KmQqy-36" style="edgeStyle=orthogonalEdgeStyle;rounded=0;orthogonalLoop=1;jettySize=auto;html=1;entryX=0;entryY=0.5;entryDx=0;entryDy=0;" edge="1" parent="1" source="D-ztfnh9r1iO0S8KmQqy-19" target="D-ztfnh9r1iO0S8KmQqy-6">
          <mxGeometry relative="1" as="geometry">
            <Array as="points">
              <mxPoint x="290" y="510" />
            </Array>
          </mxGeometry>
        </mxCell>
        <mxCell id="D-ztfnh9r1iO0S8KmQqy-19" value="sorted_size = sorted_size + 1&amp;nbsp;" style="whiteSpace=wrap;html=1;" vertex="1" parent="1">
          <mxGeometry x="435" y="1380" width="210" height="60" as="geometry" />
        </mxCell>
        <mxCell id="D-ztfnh9r1iO0S8KmQqy-24" style="edgeStyle=orthogonalEdgeStyle;rounded=0;orthogonalLoop=1;jettySize=auto;html=1;entryX=0;entryY=0.5;entryDx=0;entryDy=0;" edge="1" parent="1" source="D-ztfnh9r1iO0S8KmQqy-21" target="D-ztfnh9r1iO0S8KmQqy-23">
          <mxGeometry relative="1" as="geometry" />
        </mxCell>
        <mxCell id="D-ztfnh9r1iO0S8KmQqy-21" value="print = numbers" style="shape=document;whiteSpace=wrap;html=1;boundedLbl=1;" vertex="1" parent="1">
          <mxGeometry x="720" y="470" width="120" height="80" as="geometry" />
        </mxCell>
        <mxCell id="D-ztfnh9r1iO0S8KmQqy-23" value="stop" style="ellipse;whiteSpace=wrap;html=1;" vertex="1" parent="1">
          <mxGeometry x="920" y="480" width="120" height="60" as="geometry" />
        </mxCell>
        <mxCell id="D-ztfnh9r1iO0S8KmQqy-34" style="edgeStyle=orthogonalEdgeStyle;rounded=0;orthogonalLoop=1;jettySize=auto;html=1;entryX=1;entryY=0.5;entryDx=0;entryDy=0;" edge="1" parent="1" source="D-ztfnh9r1iO0S8KmQqy-27" target="D-ztfnh9r1iO0S8KmQqy-16">
          <mxGeometry relative="1" as="geometry">
            <Array as="points">
              <mxPoint x="700" y="960" />
              <mxPoint x="700" y="1250" />
            </Array>
          </mxGeometry>
        </mxCell>
        <mxCell id="D-ztfnh9r1iO0S8KmQqy-35" value="no" style="edgeLabel;html=1;align=center;verticalAlign=middle;resizable=0;points=[];" vertex="1" connectable="0" parent="D-ztfnh9r1iO0S8KmQqy-34">
          <mxGeometry x="-0.9465" relative="1" as="geometry">
            <mxPoint x="8" as="offset" />
          </mxGeometry>
        </mxCell>
        <mxCell id="D-ztfnh9r1iO0S8KmQqy-27" value="numbers[index] &amp;gt; numbers[index + 1];" style="rhombus;whiteSpace=wrap;html=1;" vertex="1" parent="1">
          <mxGeometry x="420" y="920" width="240" height="80" as="geometry" />
        </mxCell>
        <mxCell id="D-ztfnh9r1iO0S8KmQqy-28" value="" style="edgeStyle=orthogonalEdgeStyle;rounded=0;orthogonalLoop=1;jettySize=auto;html=1;endArrow=none;" edge="1" parent="1" source="D-ztfnh9r1iO0S8KmQqy-11" target="D-ztfnh9r1iO0S8KmQqy-27">
          <mxGeometry relative="1" as="geometry">
            <mxPoint x="540" y="849.9999999999998" as="sourcePoint" />
            <mxPoint x="540" y="1080" as="targetPoint" />
          </mxGeometry>
        </mxCell>
      </root>
    </mxGraphModel>
  </diagram>
</mxfile>
